<svg viewBox="0 0 512 512" xmlns="http://www.w3.org/2000/svg" xmlns:xlink="http://www.w3.org/1999/xlink"><linearGradient id="a" gradientTransform="matrix(1 0 0 -1 0 -9462)" gradientUnits="userSpaceOnUse" x1="0" x2="512" y1="-9718" y2="-9718"><stop offset="0" stop-color="#00f1ff"/><stop offset=".231" stop-color="#00d8ff"/><stop offset=".5138" stop-color="#00c0ff"/><stop offset=".7773" stop-color="#00b2ff"/><stop offset="1" stop-color="#00adff"/></linearGradient><path d="m512 256c0 141.386719-114.613281 256-256 256s-256-114.613281-256-256 114.613281-256 256-256 256 114.613281 256 256zm0 0" fill="url(#a)"/><path d="m212.503906 395.757812c-11.273437 0-21.910156-4.242187-30.132812-12.058593l-106.75-102.324219c-5.980469-5.730469-6.183594-15.226562-.449219-21.207031 5.730469-5.980469 15.226563-6.183594 21.207031-.449219l106.707032 102.28125c2.683593 2.554688 6.265624 3.898438 10.027343 3.746094 3.652344-.144532 7.019531-1.683594 9.511719-4.34375l191.683594-238.554688c5.1875-6.457031 14.628906-7.488281 21.085937-2.296875 6.460938 5.1875 7.488281 14.628907 2.300781 21.085938l-191.976562 238.925781c-.167969.207031-.34375.410156-.519531.609375-7.972657 8.902344-18.9375 14.070313-30.882813 14.550781-.601562.023438-1.210937.035156-1.8125.035156zm0 0" fill="#fff"/></svg>